<svg xmlns="http://www.w3.org/2000/svg" viewBox="0 0 1600 1100" role="img" aria-labelledby="t d"><title id="t">Illustration cafe</title><desc id="d">Création originale Studio Lumen</desc><defs><linearGradient id="g" x2="1" y2="1"><stop stop-color="#3b211b"/><stop offset="1" stop-color="#b85d42"/></linearGradient><radialGradient id="l"><stop stop-color="#ffd08a" stop-opacity=".9"/><stop offset="1" stop-color="#ffd08a" stop-opacity="0"/></radialGradient><filter id="n"><feTurbulence baseFrequency=".8" numOctaves="3" stitchTiles="stitch"/><feBlend mode="soft-light" in="SourceGraphic"/></filter></defs><rect width="1600" height="1100" fill="url(#g)"/><circle cx="1250" cy="180" r="470" fill="url(#l)"/><path d="M0 790 Q400 660 800 800 T1600 730 V1100H0Z" fill="#3b211b" opacity=".72"/><path d="M180 190h1240v650H180z" fill="#251713" opacity=".5"/><path d="M180 190h1240M400 190v650M1200 190v650" stroke="#e8b779" stroke-width="12" opacity=".4"/><g transform="translate(520 390)"><path d="M0 80h490v290q0 150-245 150T0 370z" fill="#ead7ba"/><path d="M490 160q230-20 190 150-20 100-190 90" fill="none" stroke="#ead7ba" stroke-width="45"/><path d="M120 30q-45-95 20-150M250 30q-45-95 20-150M380 30q-45-95 20-150" fill="none" stroke="#f5d79e" stroke-width="18" opacity=".65"/></g><path d="M0 930h1600" stroke="#edbd79" stroke-width="22"/><rect width="1600" height="1100" opacity=".12" filter="url(#n)"/><text x="90" y="1000" fill="white" opacity=".65" font-family="serif" font-size="24" letter-spacing="8">STUDIO LUMEN · ORIGINAL</text></svg>